<svg height="200" viewBox="0 0 1024 1024" width="200" xmlns="http://www.w3.org/2000/svg"><path d="m153.424 450.411h61.324v61.488h-61.324zm0 246.149h61.324v61.282h-61.324v-61.28zm436.263 245.742h-17.174v-122.771h-122.453v122.771h-104.058v-799.318h330.976v467.5l61.332-53.286v-45.3h203.213v112.929l61.127-10.244v-163.966h-264.34v-368.709h-196.25v-61.69h-61.334v61.484h-196.055v245.947h-263.316v676.133h601.041zm-374.728 0v-122.771h-61.332v122.771h-70.94v-553.173h201.984l.2 553.173h-69.911zm-61.535-368.714h61.324v61.484h-61.324zm296.636 0h122.453v61.484h-122.453zm0-368.91h122.453v61.484h-122.453zm0 122.971h122.453v61.48h-122.453zm0 368.911h122.453v61.282h-122.453v-61.28zm0-246.149h122.453v61.488h-122.453zm543.587 352.084c0 105.047-84.946 190.2-189.727 190.2s-189.72-85.157-189.72-190.2 84.939-190.2 189.727-190.2 189.72 85.158 189.72 190.2zm-218.911-54.494-66.628-.641v24.6q8.881-.214 48.436-.427-2.539 37.744-20.727 62.341-14.171 19.083-34.051 27.143a79.684 79.684 0 0 1 17.973 23.113q46.527-33.289 57.743-85.668 3.182-17.808 5.928-43.254zm15.86-44.958.85 167.1c-.148 2.26-1.412 3.746-3.807 4.453a85.53 85.53 0 0 1 -20.1.213 120.142 120.142 0 0 1 6.554 27.566q26.024 0 36.172-5.512 6.344-4.457 6.771-17.178v-71.888q26.225 47.707 71.91 74.85a114.207 114.207 0 0 1 17.349-24.594q-33-9.542-63.882-53.863 21.577-18.443 49.076-51.737-13.327-9.548-23.27-18.237-14.17 26.082-38.5 47.711-9.725-18.448-12.685-50.682l.632-28.2h-27.07zm0 0" fill="#1296db"/></svg>