<svg height="200" viewBox="0 0 1024 1024" width="200" xmlns="http://www.w3.org/2000/svg"><g fill="#1296db"><path d="m63.992001 928.011999v-768.223973a31.996 31.996 0 0 1 31.996-31.996h580.919386a31.996 31.996 0 0 1 31.996 31.996v416.139983h63.992001v-416.139983c0-52.921385-43.066617-95.988001-95.988001-95.988001h-580.919386c-52.921385 0-95.988001 43.066617-95.988001 95.988001v768.223973c0 52.921385 43.066617 95.988001 95.988001 95.988001h523.518561v-63.992001h-523.518561a32.059993 32.059993 0 0 1 -31.996-31.996z"/><path d="m995.651544 860.052493h28.220472l-.063992-60.600425h-28.15648a158.444194 158.444194 0 0 0 -7.615049-26.940632l25.724785-14.846144-30.332209-52.473441-26.620672 15.35808a175.338083 175.338083 0 0 0 -19.261592-18.493688l16.189976-28.028496-52.409449-30.332209-16.893888 29.180353a174.634171 174.634171 0 0 0 -24.700913-6.335209v-34.107736h-60.536433v34.939632a166.251219 166.251219 0 0 0 -22.653168 7.039121l-18.941632-32.763905-52.409449 30.268216 19.325584 33.467817a165.483315 165.483315 0 0 0 -15.998 16.125984l-34.491688-19.965504-30.332209 52.409449 34.107737 19.709536c-2.55968 7.03912-5.183352 14.142232-6.719161 21.629296h-39.547056v60.600425h38.587176c1.27984 7.615048 3.1996 14.910136 5.439321 22.205225l-33.915761 19.645544 30.332208 52.473441 31.932009-18.429696c4.991376 6.335208 10.110736 12.414448 15.998 17.91776l-18.301712 31.612048 52.473441 30.396201 16.765904-28.988377a159.980002 159.980002 0 0 0 24.508936 7.615048v33.531809h60.600425v-31.03612c9.086864-1.27984 17.725784-3.327584 26.300713-6.015249l15.550056 27.004625 52.473441-30.396201-14.526184-25.084864a159.980002 159.980002 0 0 0 20.349456-19.133608l25.27684 14.590176 30.332209-52.473441-24.060993-13.886264c3.327584-8.830896 6.143232-17.853768 7.999001-27.388577zm-60.984377-30.588176c0 56.056993-45.626297 101.68329-101.68329 101.68329s-101.619298-45.626297-101.619298-101.68329a101.747282 101.747282 0 0 1 203.302588 0zm-742.691164-571.512561h383.952006v60.024497h-383.952006zm0 191.976003h385.935758v62.008249h-385.935758zm0 189.992251h385.935758v62.008249h-385.935758z"/></g></svg>