<?xml version="1.0" standalone="no"?><!DOCTYPE svg PUBLIC "-//W3C//DTD SVG 1.1//EN" "http://www.w3.org/Graphics/SVG/1.1/DTD/svg11.dtd"><svg t="1606889814319" class="icon" viewBox="0 0 1024 1024" version="1.1" xmlns="http://www.w3.org/2000/svg" p-id="3165" xmlns:xlink="http://www.w3.org/1999/xlink" width="200" height="200"><defs><style type="text/css"></style></defs><path d="M908.032 799.552a427.456 427.456 0 0 0-92.16-136.576 429.312 429.312 0 0 0-136.576-92.16l-1.344-0.512a283.392 283.392 0 1 0-449.344-229.76c0 94.528 46.272 178.304 117.44 229.824l-1.344 0.64a425.6 425.6 0 0 0-136.576 92.096 429.312 429.312 0 0 0-125.824 294.4 9.152 9.152 0 0 0 9.152 9.344H160a9.152 9.152 0 0 0 9.152-8.96A340.736 340.736 0 0 1 269.44 724.48 340.608 340.608 0 0 1 512 624c91.648 0 177.728 35.648 242.56 100.48a340.736 340.736 0 0 1 100.288 233.472c0.128 4.992 4.096 8.96 9.152 8.96h68.544c5.12 0 9.28-4.288 9.152-9.408a425.92 425.92 0 0 0-33.728-157.952zM512 537.152c-52.48 0-101.824-20.48-138.944-57.6-37.12-37.12-57.6-86.528-57.6-139.008 0-52.48 20.48-101.76 57.6-138.944 37.12-37.12 86.464-57.6 138.944-57.6 52.48 0 101.824 20.48 138.944 57.6 37.12 37.12 57.6 86.528 57.6 138.944 0 52.48-20.48 101.824-57.6 139.008-37.12 37.12-86.464 57.6-138.944 57.6z" p-id="3166" fill="#1296db"></path></svg>