<svg height="200" viewBox="0 0 1101 1024" width="215.039063" xmlns="http://www.w3.org/2000/svg"><path d="m1060.326401 1024h-1019.23457a41.077281 41.077281 0 0 1 -41.091831-41.091831v-941.809062a41.091831 41.091831 0 1 1 82.198214 0v900.702679h978.128187a41.091831 41.091831 0 0 1 0 82.198214zm-637.447221-206.972454a40.975424 40.975424 0 0 1 -34.369301-18.610642l-179.223827-285.401977a41.06273 41.06273 0 1 1 68.724051-44.97693l128.310117 207.656348 52.048683-202.257952a41.135484 41.135484 0 0 1 21.928254-26.715511l207.772756-100.401429a41.135484 41.135484 0 0 1 52.848984 15.409436l104.490241 169.212786 152.595622-460.857112a41.120933 41.120933 0 0 1 78.0803 25.798802l-180.431554 544.524971a41.077281 41.077281 0 0 1 -73.904183 8.570498l-131.278507-212.560012-157.150063 76.028619-70.601121 273.74668a41.048179 41.048179 0 0 1 -33.10337 30.251388 46.097352 46.097352 0 0 1 -6.737082.567486z" fill="#1296db"/></svg>