<?xml version="1.0" standalone="no"?><!DOCTYPE svg PUBLIC "-//W3C//DTD SVG 1.1//EN" "http://www.w3.org/Graphics/SVG/1.1/DTD/svg11.dtd"><svg t="1615902816780" class="icon" viewBox="0 0 1080 1024" version="1.1" xmlns="http://www.w3.org/2000/svg" p-id="1643" xmlns:xlink="http://www.w3.org/1999/xlink" width="210.9375" height="200"><defs><style type="text/css"></style></defs><path d="M1069.630202 321.492607l-61.135105-61.031045c-16.90971-16.90971-46.826889-14.204156-67.274631 6.191555l-459.944108 459.944109c-20.395712 20.239622-23.101265 50.36492-6.191555 67.27463L535.907728 855.006961c16.90971 16.80565 46.826889 14.100097 67.63884-6.243585l459.840049-459.840049c20.343682-20.395712 23.153295-50.72913 6.243585-67.43072zM582.734617 911.719526l2.185255 1.821046L393.345867 1014.582592H780.448148a52.029877 52.029877 0 0 0 52.029876-52.029876v-295.893908l-236.527818 235.383161a89.075149 89.075149 0 0 1-13.215589 9.677557z m-168.004471-143.966668a77.368426 77.368426 0 0 1 17.638128-28.408312L832.478024 341.107871V52.029877a52.029877 52.029877 0 0 0-52.029876-52.029877H52.029877A52.029877 52.029877 0 0 0 0 52.029877v910.522839a52.029877 52.029877 0 0 0 52.029877 52.029876h257.339769l102.967126-248.858899zM130.074691 78.044815h546.313704c28.824552 0 52.029877 14.308216 52.029876 32.102434s-23.309385 31.946344-52.029876 31.946344H130.074691c-28.720492 0-52.029877-14.308216-52.029876-31.946344S101.354199 78.044815 130.074691 78.044815z m0 171.386413h546.313704c28.824552 0 52.029877 15.036634 52.029876 33.6113s-23.309385 33.55927-52.029876 33.559271H130.074691c-28.720492 0-52.029877-15.036634-52.029876-33.559271s23.309385-33.6113 52.029876-33.6113z m0 244.54042c-28.720492 0-52.029877-15.608963-52.029876-34.703928s23.309385-34.651898 52.029876-34.651898h338.194198c28.720492 0 52.029877 15.608963 52.029876 34.651898S496.989381 494.283827 468.268889 494.283827z m293.968803 303.49027l-98.180377 226.538082 218.525481-111.395966z" p-id="1644" fill="#1296db"></path></svg>