<svg height="200" viewBox="0 0 1024 1024" width="200" xmlns="http://www.w3.org/2000/svg"><path d="m812.459479 754.517158c10.779874 5.389937 16.168811 14.820826 17.515795 26.947684 0 10.778874-5.389937 21.557747-14.820827 28.293669-9.431889 6.736921-21.557747 6.736921-30.989636 1.347984l-127.9985-64.673242c-10.778874-5.389937-17.514795-16.167811-17.514795-28.294669v-145.513294c0-17.515795 14.819826-32.336621 32.335621-32.336622s32.336621 14.819826 32.336621 32.336622v126.650515zm-629.212626-342.22699c-9.431889 0-18.863779 2.693968-25.5997 9.43089-5.389937 5.389937-9.431889 14.820826-9.43189 22.905732 0 9.430889 2.693968 17.514795 9.43089 24.251715 6.736921 6.736921 14.820826 9.431889 25.5997 9.43189h140.124358c9.431889 0 18.863779-2.694968 25.5997-9.43189 6.736921-6.736921 9.431889-14.819826 9.431889-24.251715s-2.694968-17.515795-9.431889-22.905732c-6.735921-6.736921-16.167811-9.430889-25.5997-9.43089h-140.124358zm0-161.682105c-12.126858 0-22.905732 6.735921-29.642653 17.514795-6.736921 9.431889-6.736921 22.905732 0 32.336621 6.736921 10.779874 16.167811 16.168811 29.641653 16.168811h408.248215c9.430889 0 17.515795-2.694968 24.251716-9.43189 6.736921-5.389937 9.431889-14.820826 9.43189-22.904732 0-9.431889-2.694968-17.515795-9.43189-24.252715s-14.819826-9.430889-24.251716-9.43089h-408.248215zm688.495931 635.949548c48.505432-48.504432 72.757147-107.788737 74.105132-177.849916-1.347984-74.104132-25.5997-133.388437-74.105132-180.545884-47.157447-47.156447-106.440753-72.756147-179.1979-75.451116-72.757147 2.694968-132.040453 26.946684-179.1979 74.104131s-72.757147 106.440753-74.104131 179.1979c2.694968 72.757147 26.946684 130.693468 75.452115 179.1979 47.157447 47.157447 106.440753 71.409163 179.1979 74.104132 71.409163-1.346984 130.692468-25.5997 177.849916-72.757147zm45.809463-402.858279c59.284305 59.283305 90.273942 134.735421 92.968911 223.660379-2.694968 88.925958-32.337621 164.378074-92.968911 223.661379-59.282305 59.283305-134.734421 90.271942-223.659379 92.96691-74.105132-1.346984-137.430389-22.904732-191.324757-63.325258h-410.942185c-36.378574 0-64.673242-29.641653-64.673242-66.020226v-788.200763c0-35.031589 28.294668-66.021226 64.673242-66.021227h662.897232c36.379574 0 64.673242 29.641653 64.673242 66.020227v309.891368c36.378574 16.167811 70.062179 39.073542 98.356847 67.367211zm0 0" fill="#1296db"/></svg>