<svg height="200" viewBox="0 0 1024 1024" width="200" xmlns="http://www.w3.org/2000/svg"><path d="m881 512c0-52.4 32.9-96.8 79-114.5-11-43.2-28-83.9-50.2-121.3-45.2 20.1-99.8 11.9-136.8-25.2-37-37-45.2-91.7-25.1-136.8-37.5-22.2-78.2-39.2-121.4-50.2-17.8 46.1-62.2 79-114.5 79-52.4 0-96.8-32.9-114.5-79-43.2 11-83.9 28-121.3 50.2 20.1 45.2 11.9 99.8-25.1 136.8s-91.7 45.2-136.8 25.2c-22.3 37.4-39.3 78.1-50.3 121.3 46.1 17.8 79 62.2 79 114.5 0 52.4-32.9 96.8-79 114.5 11 43.2 28 83.9 50.2 121.3 45.2-20.1 99.8-11.9 136.8 25.2 37 37 45.2 91.7 25.1 136.8 37.5 22.2 78.2 39.2 121.4 50.2 17.8-46.1 62.2-79 114.5-79 52.4 0 96.8 32.9 114.5 79 43.2-11 83.9-28 121.3-50.2-20.1-45.2-11.9-99.8 25.1-136.8s91.7-45.2 136.8-25.2c22.3-37.4 39.3-78.1 50.3-121.3-46.1-17.7-79-62.1-79-114.5zm-369 123c-67.9 0-123-55.1-123-123s55.1-123 123-123 123 55.1 123 123-55.1 123-123 123z" fill="#1296db"/></svg>