<svg height="200" viewBox="0 0 1024 1024" width="200" xmlns="http://www.w3.org/2000/svg"><path d="m508.402 322.048c-124.401 0-225.258 100.835-225.258 225.236v276.754h453.721v-276.754c0-124.402-100.834-225.236-225.236-225.236zm-261.506 134.9c4-19.862-8.886-39.202-28.748-43.202l-106.22-21.316c-19.862-3.977-39.225 8.908-43.202 28.77a37.06 37.06 0 0 0 -.317 12.75c2.25 14.817 13.522 27.317 29.066 30.452l106.22 21.316c19.884 3.978 39.224-8.885 43.201-28.77zm-24.34-246.098 67.656 84.608c12.657 15.817 35.747 18.386 51.587 5.728 15.817-12.659 18.385-35.749 5.727-51.588l-67.677-84.587c-12.635-15.816-35.725-18.385-51.565-5.749-10.636 8.5-15.272 21.681-13.363 34.225a36.306 36.306 0 0 0 7.636 17.363zm292.05 31.999c20.271.477 37.066-15.568 37.542-35.816l-.25-108.312c.478-20.249-15.567-37.066-35.815-37.543-20.272-.477-37.089 15.568-37.567 35.816l.25 108.31c-.045 2.183.091 4.342.41 6.433 2.636 17.27 17.363 30.702 35.43 31.112zm169.875 66.404c15.205 13.386 38.407 11.91 51.793-3.295l71.564-81.335c13.386-15.227 11.908-38.407-3.295-51.793-15.227-13.386-38.407-11.908-51.793 3.295l-71.585 81.337c-7.455 8.476-10.296 19.43-8.727 29.792 1.248 8.227 5.316 16.068 12.043 22zm267.12 132.72c-3.046-20.045-21.77-33.817-41.793-30.75l-107.106 16.295c-20.045 3.045-33.816 21.748-30.772 41.793 3.046 20.043 21.772 33.815 41.816 30.77l107.084-16.316c20.044-3.045 33.815-21.75 30.77-41.793zm-134.607 466.035c0 28.884-23.407 52.27-52.293 52.27h-520.895c-28.886 0-52.293-23.386-52.293-52.27s23.407-52.27 52.293-52.27h520.896c28.886 0 52.293 23.386 52.293 52.27z" fill="#1296db"/></svg>