<svg height="200" viewBox="0 0 1024 1024" width="200" xmlns="http://www.w3.org/2000/svg"><path d="m877.9 651.6c-20.4 0-38.9 8.2-52.4 21.4l-57.3-36.3c18.7-38.5 28.6-81 28.6-125 0-76.4-29.7-148.2-83.8-202.2-50.2-50.2-115.9-79.5-186.2-83.3v-55.8c33.7-7.3 59-37.3 59-73.3 0-41.4-33.6-75-75-75s-75 33.6-75 75c0 35.9 25.3 65.9 59 73.3v55.8c-70.4 3.9-136 33.1-186.2 83.3-54 54-83.8 125.8-83.8 202.2 0 44.8 10.2 88 29.6 127l-61.5 38.9c-13.8-15.9-34.1-26-56.7-26-41.4 0-75 33.6-75 75s33.6 75 75 75 75-33.6 75-75c0-7.2-1-14.2-3-20.9l62-39.2c10.9 16.9 23.7 32.8 38.3 47.4 54 54 125.8 83.8 202.2 83.8s148.2-29.7 202.2-83.8c15.1-15.1 28.3-31.6 39.5-49.2l55.3 35c-3.2 8.4-5 17.4-5 26.9 0 41.4 33.6 75 75 75s75-33.6 75-75c.2-41.4-33.4-75-74.8-75zm-113.1-139.9c0 38.5-8.6 75-24 107.7l-61.1-38.7c8.7-21.3 13.6-44.6 13.6-69 0-95.2-73.3-173.6-166.4-181.7v-71.8c132.5 8.3 237.9 118.8 237.9 253.5zm-372.4 0c0-65.3 53.1-118.4 118.4-118.4s118.4 53.1 118.4 118.4-53.1 118.4-118.4 118.4-118.4-53.1-118.4-118.4zm-135.6 0c0-134.7 105.4-245.2 238-253.5v71.8c-93.1 8.1-166.4 86.5-166.4 181.7 0 25.2 5.1 49.2 14.4 71l-61.1 38.6c-15.9-33.1-24.9-70.3-24.9-109.6zm254 254c-89.4 0-168.1-46.4-213.4-116.4l60.5-38.3c32.6 50 89 83.1 152.9 83.1 64.8 0 121.7-33.9 154.1-84.9l60.5 38.3c-45.1 71-124.4 118.2-214.6 118.2z" fill="#1296db"/></svg>