<svg height="200" viewBox="0 0 1024 1024" width="200" xmlns="http://www.w3.org/2000/svg"><path d="m342.707779 577.389636-37.399329 37.299331c-81.798532-38.099316-178.596794-20.999623-242.395649 42.799232-63.798855 63.798854-80.898548 160.597117-42.89923 242.395649l110.998008-110.698013 103.898135 103.998133-110.798011 110.798011c81.798532 37.999318 178.496796 20.899625 242.295651-42.799231 63.798855-63.698857 80.898548-160.497119 42.999228-242.295651l37.199332-37.299331zm338.793919-130.89765 37.199332-37.299331c81.798532 38.099316 178.596794 20.999623 242.395649-42.799231 63.798855-63.798855 80.898548-160.597117 42.89923-242.39565l-110.898009 110.798012-103.998133-103.898136 110.898009-110.798011c-81.698534-38.099316-178.596794-20.999623-242.395649 42.699234s-80.998546 160.597117-42.999228 242.395649l-37.099334 37.299331zm125.097754 312.994382-218.596076-219.396062 45.799178-45.799178-461.391718-461.89171c-38.799304-36.999335-99.998206-36.299348-137.797527 1.599972-37.89932 37.899319-38.599307 99.098221-1.499973 137.797526l461.29172 462.091706 45.799178-45.799178 218.596076 219.096068 17.099693 71.29872 141.997452 142.297446 101.998169-102.098168-142.09745-142.297446zm0 0" fill="#1296db"/></svg>