<svg height="200" viewBox="0 0 1024 1024" width="200" xmlns="http://www.w3.org/2000/svg"><path d="m512 64c235.648 0 426.666667 105.045333 426.666667 234.666667 0 38.4-16.768 74.666667-46.506667 106.666666 29.738667 32 46.506667 68.266667 46.506667 106.666667s-16.768 74.666667-46.506667 106.666667c29.738667 32 46.506667 68.266667 46.506667 106.666666 0 129.621333-191.018667 234.666667-426.666667 234.666667s-426.666667-105.045333-426.666667-234.666667c0-38.4 16.768-74.666667 46.506667-106.666666-29.738667-32-46.506667-68.266667-46.506667-106.666667s16.768-74.666667 46.506667-106.666667c-29.738667-32-46.506667-68.266666-46.506667-106.666666 0-129.621333 191.018667-234.666667 426.666667-234.666667zm313.6 607.146667-3.413333 2.005333c-77.866667 45.226667-188.032 73.514667-310.186667 73.514667-123.946667 0-235.562667-29.056-313.514667-75.52-18.005333 17.834666-27.818666 36.437333-27.818666 54.186666 0 68.693333 146.56 149.333333 341.333333 149.333334 194.773333 0 341.333333-80.64 341.333333-149.333334 0-17.792-9.813333-36.394667-27.733333-54.186666zm0-213.333334-3.413333 2.005334c-77.866667 45.226666-188.032 73.514666-310.186667 73.514666-123.946667 0-235.562667-29.056-313.514667-75.52-18.005333 17.834667-27.818666 36.437334-27.818666 54.186667 0 68.693333 146.56 149.333333 341.333333 149.333333s341.333333-80.64 341.333333-149.333333c0-17.792-9.813333-36.394667-27.733333-54.186667zm-313.6-308.48c-194.773333 0-341.333333 80.64-341.333333 149.333334s146.56 149.333333 341.333333 149.333333 341.333333-80.64 341.333333-149.333333-146.56-149.333333-341.333333-149.333334z" fill="#1296db"/></svg>