<svg height="200" viewBox="0 0 1024 1024" width="200" xmlns="http://www.w3.org/2000/svg"><g fill="#1296db"><path d="m908.56106666 427.89546667h28.94506667v-42.05226667h-206.4384l1.09226666 44.78293333 28.39893334 3.2768v20.20693334c55.15946667 5.46133333 107.04213333 28.39893333 148.54826666 66.08213333zm-363.17866667 102.12693333c13.1072-13.1072 27.30666667-24.576 42.05226667-34.4064-2.18453333-69.35893333-5.46133333-151.27893333-8.73813333-177.49333333-6.00746667-48.05973333-34.95253333-201.5232-223.91466667-199.8848-188.96213333 1.09226667-220.63786667 162.2016-227.7376 204.25386666-7.64586667 42.05226667-11.4688 194.9696-11.4688 194.9696h-25.12213333v43.14453334l206.98453333 1.09226666v-40.41386666h-22.9376v-167.1168s-2.73066667-85.1968 85.74293333-84.10453334c88.4736 1.09226667 79.18933333 95.0272 79.18933334 95.0272l4.36906666 310.20373334s1.09226667 77.0048 44.78293334 143.63306666c-13.1072-31.67573333-20.20693333-66.62826667-20.20693334-102.12693333 0-70.99733333 27.30666667-137.07946667 77.0048-186.7776z"/><path d="m90.45333333 638.70293333h31.67573333v286.17386667s43.14453333 30.03733333 144.72533333 0v-280.1664l28.94506667-2.73066667v-44.78293333h-205.34613333zm847.0528-345.7024h-29.4912l1.09226666-191.6928s-54.61333333-27.8528-147.456 0l1.09226667 196.06186667-32.22186667 1.09226667v39.86773333h207.53066667v-45.32906667zm-34.4064 439.63733334c1.09226667-7.09973333 1.6384-14.7456 1.6384-21.84533334 0-7.64586667-.54613333-14.7456-1.6384-21.84533333l47.5136-37.13706667c4.36906667-3.2768 5.46133333-9.28426667 2.73066666-14.19946666l-45.32906666-78.09706667c-2.73066667-4.9152-8.73813333-7.09973333-13.65333334-4.9152l-56.25173333 22.9376c-11.4688-8.73813333-24.576-16.384-38.22933333-22.39146667l-8.192-59.52853333c-1.09226667-5.46133333-5.46133333-9.28426667-11.4688-9.28426667h-90.112c-5.46133333 0-10.37653333 4.36906667-10.92266667 9.28426667l-8.192 59.52853333c-13.65333333 5.46133333-26.2144 13.1072-38.22933333 22.39146667l-56.25173334-22.9376c-4.9152-2.18453333-10.92266667 0-13.65333333 4.9152l-45.32906667 78.09706667c-2.73066667 4.9152-1.6384 10.92266667 2.73066667 14.19946666l47.5136 37.13706667c-1.09226667 7.09973333-1.6384 14.7456-1.6384 21.84533333s.54613333 14.7456 1.6384 21.84533334l-47.5136 37.13706666c-4.36906667 3.2768-5.46133333 9.28426667-2.73066667 14.19946667l45.32906667 78.09706667c2.73066667 4.9152 8.73813333 7.09973333 13.65333333 4.9152l56.25173334-22.9376c11.4688 8.73813333 24.576 16.384 38.22933333 22.39146666l8.192 59.52853334c1.09226667 5.46133333 5.46133333 9.28426667 10.92266667 9.28426666h90.112c5.46133333 0 10.37653333-4.36906667 10.92266666-9.28426666l9.28426667-58.9824c13.65333333-5.46133333 26.2144-13.1072 38.22933333-22.39146667l56.25173334 22.9376c4.9152 2.18453333 10.92266667 0 13.65333333-4.9152l45.32906667-78.09706667c2.73066667-4.9152 1.6384-10.92266667-2.73066667-14.19946666zm-167.66293334 56.79786666c-43.69066667 0-79.18933333-35.49866667-79.18933333-79.18933333s35.49866667-79.18933333 79.18933333-79.18933333 79.18933333 35.49866667 79.18933334 79.18933333c0 44.2368-35.49866667 79.18933333-79.18933334 79.18933333z"/></g></svg>