<?xml version="1.0" standalone="no"?><!DOCTYPE svg PUBLIC "-//W3C//DTD SVG 1.1//EN" "http://www.w3.org/Graphics/SVG/1.1/DTD/svg11.dtd"><svg t="1615365649381" class="icon" viewBox="0 0 1024 1024" version="1.1" xmlns="http://www.w3.org/2000/svg" p-id="2817" xmlns:xlink="http://www.w3.org/1999/xlink" width="200" height="200"><defs><style type="text/css"></style></defs><path d="M888.32 755.84a8.192 8.192 0 0 1-4.48 7.296l-233.6 119.104a8.192 8.192 0 0 1-7.552 0l-255.36-135.424a73.6 73.6 0 0 0-67.84-0.576l-183.872 93.44V464l67.008-31.872a32.768 32.768 0 1 0-28.16-59.072L93.44 411.52a40.96 40.96 0 0 0-23.232 36.992v431.168a40.96 40.96 0 0 0 59.392 36.48l219.52-111.616a8.192 8.192 0 0 1 7.552 0.128l255.36 135.36a73.6 73.6 0 0 0 67.968 0.512l233.6-119.104a73.6 73.6 0 0 0 40.192-65.6V359.808a40.96 40.96 0 0 0-54.272-38.656l-73.6 25.472a32.704 32.704 0 0 0 21.376 61.888l41.088-14.272v361.6z" p-id="2818" fill="#1296db"></path><path d="M570.368 713.28c132.608-172.544 199.36-299.136 199.36-385.344a257.728 257.728 0 1 0-515.456 0c0 86.208 66.752 212.8 199.36 385.28a73.6 73.6 0 0 0 116.736 0z m-51.84-39.936a8.192 8.192 0 0 1-13.056 0C381.44 511.936 319.744 394.944 319.744 327.936a192.256 192.256 0 0 1 384.512 0c0 67.008-61.632 184-185.728 345.408z" p-id="2819" fill="#1296db"></path><path d="M512 460.608A132.736 132.736 0 1 0 512 195.2a132.736 132.736 0 0 0 0 265.408z m0-65.472a67.2 67.2 0 1 1 0-134.464 67.2 67.2 0 0 1 0 134.464z" p-id="2820" fill="#1296db"></path></svg>